PathFileType	4	(X/Y/Z)
DataRate	CameraRate	NumFrames	NumMarkers	Units	OrigDataRate	OrigDataStartFrame	OrigNumFrames	
	120.0	120.0	5	39	mm	120.0	116	231
Frame#	Time	midhip	hip_r	hip_l	knee_r	knee_l	ankle_r	ankle_l	midasis	asis_r	asis_l	psis_r	psis_l	epicondLat_r	epicondLat_l	epicondMed_r	epicondMed_l	malleolusLat_r	malleolusLat_l	malleolusMedv_r	malleolusMedv_l	heel_r	heel_l	sternalnotch	xyphoidprocess	neck	subclavicle_r	subclavicle_l	toe_r	toe_l	thighwand_r	thighwand_l	upperleg1_r	upperleg1_l	upperleg2_r	upperleg2_l	shankwand_r	shankwand_l	lowerleg1_r	lowerleg1_l
	X1	Y1	Z1	X2	Y2	Z2	X3	Y3	Z3	X4	Y4	Z4	X5	Y5	Z5	X6	Y6	Z6	X7	Y7	Z7	X8	Y8	Z8	X9	Y9	Z9	X10	Y10	Z10	X11	Y11	Z11	X12	Y12	Z12	X13	Y13	Z13	X14	Y14	Z14	X15	Y15	Z15	X16	Y16	Z16	X17	Y17	Z17	X18	Y18	Z18	X19	Y19	Z19	X20	Y20	Z20	X21	Y21	Z21	X22	Y22	Z22	X23	Y23	Z23	X24	Y24	Z24	X25	Y25	Z25	X26	Y26	Z26	X27	Y27	Z27	X28	Y28	Z28	X29	Y29	Z29	X30	Y30	Z30	X31	Y31	Z31	X32	Y32	Z32	X33	Y33	Z33	X34	Y34	Z34	X35	Y35	Z35	X36	Y36	Z36	X37	Y37	Z37	X38	Y38	Z38	X39	Y39	Z39

	116	0.96667	1424.635	634.829	-338.160	1436.845	642.218	-283.917	1438.313	643.076	-401.350	1407.333	342.097	-265.831	1423.109	342.273	-410.109	1384.954	54.518	-244.563	1402.183	56.381	-428.752	1501.244	684.425	-341.532	1500.148	683.784	-253.833	1502.340	685.066	-429.232	1377.843	751.695	-298.531	1377.208	751.373	-383.595	1406.824	344.913	-219.920	1416.728	343.980	-457.652	1399.783	341.931	-316.102	1419.931	339.779	-364.465	1378.839	57.421	-211.754	1389.770	59.239	-458.652	1392.788	53.714	-270.990	1412.518	52.623	-397.732	1346.459	38.360	-259.563	1352.329	38.690	-419.633	1449.880	1020.042	-332.661	1540.678	910.776	-331.386	1369.668	1038.424	-340.295	1466.508	1014.081	-295.780	1471.151	1012.807	-382.819	1475.718	41.215	-228.419	1488.780	38.886	-458.315	1533.791	422.777	-295.192	1476.884	419.624	-511.715	1463.529	481.035	-246.755	1475.136	479.610	-429.598	1444.915	394.083	-245.144	1472.236	395.283	-413.303	1407.328	146.751	-148.869	1505.198	159.981	-410.261	1398.655	201.289	-214.622	1442.778	218.605	-421.270
	117	0.97500	1424.882	634.817	-338.049	1436.969	642.291	-283.851	1438.598	643.052	-401.282	1407.412	342.122	-265.989	1423.726	342.239	-409.942	1384.958	54.529	-244.622	1402.240	56.374	-428.657	1501.378	684.555	-341.413	1500.162	683.987	-253.754	1502.595	685.124	-429.071	1377.856	751.631	-298.540	1377.323	751.244	-383.618	1406.883	344.906	-220.077	1417.312	343.925	-457.482	1399.873	342.053	-316.364	1420.730	339.688	-364.354	1378.831	57.445	-211.816	1389.810	59.265	-458.546	1392.765	53.715	-271.067	1412.571	52.611	-397.659	1346.470	38.351	-259.624	1352.361	38.679	-419.556	1449.823	1020.155	-332.741	1540.701	910.957	-331.488	1369.642	1038.470	-340.326	1466.444	1014.190	-295.851	1471.115	1012.960	-382.902	1475.722	41.223	-228.463	1488.778	38.888	-458.259	1533.913	422.772	-295.189	1477.356	419.566	-511.559	1463.627	481.040	-246.810	1475.579	479.615	-429.559	1444.944	394.120	-245.297	1472.869	395.303	-413.255	1407.302	146.775	-148.945	1505.457	159.814	-410.224	1398.667	201.311	-214.737	1443.143	218.559	-421.218
	118	0.98333	1425.148	634.814	-337.959	1437.073	642.380	-283.809	1438.872	643.065	-401.238	1407.542	342.129	-266.143	1424.317	342.203	-409.782	1384.983	54.533	-244.673	1402.292	56.361	-428.574	1501.508	684.694	-341.306	1500.166	684.184	-253.694	1502.850	685.205	-428.918	1377.858	751.557	-298.552	1377.568	751.161	-383.636	1406.979	344.886	-220.229	1417.886	343.865	-457.321	1400.043	342.135	-316.483	1421.268	339.668	-364.259	1378.835	57.464	-211.873	1389.856	59.283	-458.458	1392.733	53.695	-271.141	1412.618	52.565	-397.591	1346.491	38.339	-259.688	1352.398	38.667	-419.493	1449.790	1020.272	-332.800	1540.744	911.136	-331.603	1369.612	1038.531	-340.333	1466.415	1014.300	-295.907	1471.086	1013.116	-382.971	1475.734	41.224	-228.505	1488.783	38.885	-458.210	1534.037	422.742	-295.144	1477.857	419.482	-511.365	1463.799	481.062	-246.844	1476.043	479.622	-429.483	1445.083	394.181	-245.367	1473.379	395.300	-413.163	1407.277	146.789	-149.014	1505.696	159.648	-410.170	1398.660	201.305	-214.835	1443.530	218.525	-421.118
	119	0.99167	1425.442	634.821	-337.887	1437.176	642.481	-283.779	1439.149	643.110	-401.205	1407.710	342.123	-266.283	1424.860	342.167	-409.632	1385.029	54.529	-244.720	1402.337	56.341	-428.501	1501.647	684.842	-341.200	1500.176	684.373	-253.633	1503.119	685.311	-428.767	1377.853	751.473	-298.566	1377.937	751.118	-383.650	1407.100	344.857	-220.368	1418.438	343.803	-457.173	1400.277	342.138	-316.475	1421.627	339.678	-364.112	1378.849	57.475	-211.927	1389.910	59.293	-458.386	1392.727	53.660	-271.195	1412.650	52.505	-397.530	1346.522	38.323	-259.753	1352.439	38.654	-419.443	1449.777	1020.393	-332.835	1540.814	911.326	-331.681	1369.594	1038.591	-340.324	1466.415	1014.426	-295.943	1471.068	1013.264	-383.015	1475.754	41.217	-228.540	1488.798	38.877	-458.165	1534.079	422.630	-295.027	1478.377	419.375	-511.137	1464.007	481.087	-246.861	1476.522	479.609	-429.335	1445.294	394.210	-245.362	1473.806	395.250	-412.983	1407.254	146.791	-149.073	1505.907	159.480	-410.081	1398.718	201.292	-214.920	1443.907	218.492	-420.990
	120	1.00000	1425.768	634.840	-337.830	1437.289	642.591	-283.754	1439.445	643.186	-401.178	1407.906	342.109	-266.401	1425.339	342.136	-409.492	1385.089	54.521	-244.764	1402.373	56.319	-428.435	1501.806	685.001	-341.088	1500.199	684.558	-253.563	1503.412	685.445	-428.613	1377.847	751.384	-298.586	1378.413	751.112	-383.659	1407.237	344.826	-220.486	1418.952	343.748	-457.038	1400.466	342.127	-316.431	1422.050	339.606	-363.964	1378.870	57.481	-211.980	1389.972	59.296	-458.329	1392.756	53.613	-271.228	1412.702	52.449	-397.487	1346.561	38.308	-259.820	1352.478	38.646	-419.405	1449.787	1020.523	-332.871	1540.920	911.535	-331.689	1369.588	1038.650	-340.303	1466.423	1014.574	-295.983	1471.094	1013.408	-383.041	1475.778	41.204	-228.562	1488.822	38.867	-458.118	1534.032	422.434	-294.817	1478.906	419.251	-510.889	1464.243	481.128	-246.843	1476.985	479.564	-429.135	1445.466	394.150	-245.318	1474.262	395.170	-412.786	1407.228	146.789	-149.120	1506.083	159.312	-409.952	1398.868	201.267	-214.989	1444.224	218.454	-420.868
